<svg
  xmlns="http://www.w3.org/2000/svg"
  viewBox="0 0 512 512"
>
  <rect
    width="512"
    height="512"
    rx="86"
    fill="#F5F1E8"
  />

  <rect
    x="106"
    y="86"
    width="28"
    height="340"
    rx="4"
    fill="#111111"
  />

  <path
    d="
      M134 105
      C215 61 285 82 390 119
      L390 310
      C298 270 218 256 134 301
      Z
    "
    fill="#A7191F"
  />

  <path
    d="
      M287 138
      L300 172
      L336 174
      L308 197
      L316 232
      L287 212
      L258 232
      L266 197
      L238 174
      L274 172
      Z
    "
    fill="#E4BF49"
  />

  <path
    d="
      M134 301
      C213 271 287 278 390 322
      L390 338
      C292 298 214 291 134 321
      Z
    "
    fill="#0D7A43"
  />

  <path
    d="
      M134 321
      C216 293 294 302 390 342
      L390 358
      C294 320 216 310 134 340
      Z
    "
    fill="#FFFFFF"
  />

  <path
    d="
      M134 340
      C216 313 296 320 390 362
      L390 379
      C294 340 215 330 134 359
      Z
    "
    fill="#C9282E"
  />
</svg>
